# xmcd
#
# Track frame offsets:
#	150
#	7742
#	24766
#	39465
#	53569
#	71121
#	88475
#	107389
#	122015
#	142420
#	156886
#
# Disc length: 2283 seconds
#
# Revision: 1
# Processed by: cddbd v1.5.2PL0 Copyright (c) Steve Scherf et al.
# Submitted via: audiograbber 1.83.01
#
DISCID=8a08e90b
DTITLE=Pontus Snibbs Wreck of Blues - Too Late To Die Young
DYEAR=2018
DGENRE=Blues
TTITLE0=Wreck of blues theme
TTITLE1=What must be done
TTITLE2=You had a friend
TTITLE3=You light me up
TTITLE4=Brothers and friends
TTITLE5=Jumping at shadows
TTITLE6=Before you lose it
TTITLE7=Bellieve
TTITLE8=Raining in the sunshine state
TTITLE9=Leaving this cold place behind
TTITLE10=Too late to die young
EXTD=
EXTT0=
EXTT1=
EXTT2=
EXTT3=
EXTT4=
EXTT5=
EXTT6=
EXTT7=
EXTT8=
EXTT9=
EXTT10=
PLAYORDER=
